<?xml version="1.0" encoding="UTF-8" standalone="no"?>
<!-- Created with Inkscape (http://www.inkscape.org/) -->

<svg
   xmlns:dc="http://purl.org/dc/elements/1.1/"
   xmlns:cc="http://creativecommons.org/ns#"
   xmlns:rdf="http://www.w3.org/1999/02/22-rdf-syntax-ns#"
   xmlns:svg="http://www.w3.org/2000/svg"
   xmlns="http://www.w3.org/2000/svg"
   xmlns:sodipodi="http://sodipodi.sourceforge.net/DTD/sodipodi-0.dtd"
   xmlns:inkscape="http://www.inkscape.org/namespaces/inkscape"
   width="297mm"
   height="210mm"
   viewBox="0 0 297 210"
   version="1.1"
   id="svg8"
   inkscape:version="0.92.0 unknown"
   sodipodi:docname="contorno1.svg">
  <g
     inkscape:groupmode="layer"
     id="layer2"
     inkscape:label="contorno1"
     style="display:inline">
    <path
       style="fill:none;fill-rule:evenodd;stroke:#000000;stroke-width:0.26458332px;stroke-linecap:butt;stroke-linejoin:miter;stroke-opacity:1"
       d="m 253.23787,31.063051 c -4.43197,-0.244983 -8.86419,-0.48998 -13.64174,-0.05568 -4.77756,0.434304 -9.89994,1.547865 -20.82508,3.797489 -10.92515,2.249623 -27.65077,5.634835 -37.29476,7.583679 -9.644,1.948845 -12.20529,2.461103 -19.01318,1.146062 -6.80789,-1.31504 -17.84785,-4.453415 -24.12869,-6.179539 -6.28083,-1.726123 -7.79533,-2.037933 -11.03593,-2.227267 -3.2406,-0.189334 -8.20738,-0.256152 -16.55987,0.545681 -8.35248,0.801833 -20.08941,2.472174 -27.194451,6.915483 -7.10504,4.443309 -9.577221,11.659404 -10.869037,15.468005 -1.291816,3.808601 -1.403173,4.209487 -1.871244,7.876029 -0.46807,3.666543 -1.291506,10.587855 -2.137117,20.310105 -0.845611,9.722251 -1.715735,22.283279 -2.86272,30.089799 -1.146985,7.80652 -2.572391,10.88005 -5.365327,15.54459 -2.792937,4.66454 -6.952568,10.91872 -13.883522,13.32181 -6.930954,2.40309 -16.631866,0.95425 -26.333476,-0.49469"
       id="path28"
       inkscape:connector-curvature="0"
       inkscape:path-effect="#path-effect30"
       inkscape:original-d="m 253.23787,31.063051 c -4.43195,-0.24526 -8.86417,-0.490257 -13.29666,-0.734991 -5.12268,1.113422 -10.24506,2.226982 -15.36799,3.34087 -16.72736,3.385352 -33.45298,6.770563 -50.17986,10.156243 -2.56111,0.512011 -5.1224,1.024268 -7.68399,1.536798 -11.0482,-3.16333 -22.09402,-6.281098 -33.14143,-9.421249 -1.51429,-0.312085 -3.02879,-0.623895 -4.54357,-0.935445 -4.96648,-0.06708 -9.93326,-0.133899 -14.90028,-0.200451 -11.73798,1.670261 -23.474912,3.340605 -35.212763,5.011303 -2.472041,7.216196 -4.944221,14.432291 -7.416731,21.64883 -0.111101,0.400659 -0.222459,0.801545 -0.334087,1.202714 -0.82446,6.931893 -1.647896,13.853205 -2.472242,20.780205 -0.868397,12.517385 -1.736987,25.078522 -2.605876,37.618182 -1.425208,3.07341 -2.850613,6.14694 -4.276315,9.2208 -4.160226,6.25521 -8.319857,12.50939 -12.480184,18.76448 -9.701599,-1.44925 -19.402512,-2.89808 -29.104166,-4.34673"
       sodipodi:nodetypes="cccccccccccccccc" />
  </g>
</svg>
